<?xml version="1.0" encoding="utf-8"?>
<!-- Generator: Adobe Illustrator 20.1.0, SVG Export Plug-In . SVG Version: 6.00 Build 0)  -->
<svg version="1.1" id="Layer_1" xmlns="http://www.w3.org/2000/svg" xmlns:xlink="http://www.w3.org/1999/xlink" x="0px" y="0px"
	 viewBox="0 0 175 134" style="enable-background:new 0 0 175 134;" xml:space="preserve">
<style type="text/css">
	.st0{fill:#676464;stroke:#676464;stroke-width:0.2487;}
	.st1{fill:#C96C18;}
	.st2{fill:#C96C18;stroke:#C96C18;stroke-width:0.2487;}
</style>
<g>
	<g>
		<path class="st0" d="M138.1,48.3l1.1-36.3l-23.3,9.4l-0.9-15C105.4-1,90.8-0.5,79.1,2l-0.6,12.5h-0.1L53,12.7
			c-0.2,5.2-0.3,10.4-0.6,15.6l-1.2-0.2L49.8,2.5L22.5,3.9l-0.8,25L9.4,31L9.3,46.5l-8.9-0.6l3.7,43.7l1.9-0.2L2.5,47.8l8.7,0.7
			l0.1-15.9l10.4-1.8l-0.6,21.5l8.4,2.3v-0.1l0.3-27.1l-6.1,1l0.7-22.8l23.7-1.1l1.4,25.4l4.8,0.5l0.6-15.7c0-0.1,0.1,0.1,0.1,0
			l23.4,1.7l-1.5,33.1c3,0.1,6,0.1,8.9,0.1l-1.5-34.7c-1.3-0.1-2.6-0.2-3.9-0.3l0.5-11.1c10.5-2.1,23.5-2.4,32.3,3.9l0.9,14.8
			l-4.6,2v0.1l-0.6,19.2l8.4,1.4l-1.2-21.4l21.2-8.6V15l-1.1,36l9.6-3.1l-2,41.9l1.9,0.1l1.9-39.5l0.1-5.3L138.1,48.3z M27.9,29.7
			l-0.3,22.4L23,50.9l0.6-20.3v-0.1C25,30.2,26.4,30,27.9,29.7z M82.5,16.7l1.4,30.9l-5-0.1l1.5-31.1C81.1,16.5,81.8,16.7,82.5,16.7
			z M115.3,42.5l-4.4-0.8l0.5-16.3l2.8-1.2l1.2,18.1V42.5z"/>
	</g>
	<g>
		<path class="st1" d="M69.5,133.8c-3,0-5.3-1.1-7.6-3.5c-1.6-1.6-2.8-4.8-2.8-8.3c0-4.1,1.7-7.8,4.8-10c1.8-1.3,3.8-2.1,6-2.1
			c2.2,0,4.2,0.6,6.2,1.8l-1.7,4.9c-1.5-0.8-2.9-1.2-4.3-1.2c-3,0-5.1,2.5-5.1,6.5c0,4,2.2,6.6,5.2,6.6c1.7,0,3.2-0.6,5-1.8l1.1,4.7
			C74.3,133,72.2,133.8,69.5,133.8z"/>
		<path class="st1" d="M101.6,126.8c0,4.1-3.2,7-8.1,7c-3.4,0-6-1.6-7.1-4.1l3.6-3.2c1.2,1.7,2.4,2.6,3.8,2.6c1.5,0,2.4-0.8,2.4-2.1
			c0-1.4-1-1.6-2.5-2.2l-1.5-0.6c-3.4-1.3-5.2-4-5.2-7.3c0-4,3.1-6.8,7.7-6.8c2.9,0,5.1,1.1,6.4,1.9l-1.8,4.9
			c-1.8-1.2-3.3-1.8-4.6-1.8c-1.7,0-2.5,0.6-2.5,1.7c0,1,0.8,1.4,2.2,2l1.6,0.6C99.7,120.8,101.6,123.2,101.6,126.8z"/>
		<path class="st1" d="M117.3,128.7l-1.6,4.6H110l8.3-22.8h4.8l8.3,22.8h-5.7l-1.6-4.6H117.3z M122.9,124.9l-0.6-1.9
			c-0.2-0.5-0.7-2.3-1.6-5.5c-0.8,3.2-1.3,5.1-1.5,5.6l-0.6,1.8H122.9z"/>
		<path class="st1" d="M142.4,133.3v-22.8h5.5v22.8H142.4z"/>
		<path class="st1" d="M161.5,133.3v-22.8h5.6v18.3h7.6v4.6H161.5z"/>
	</g>
	<path class="st2" d="M145.7,88.1l-15.8,2.2l2.9-31.7h-0.1l-25.6,1l1.2,16.4c-2.9-0.2-5.9-0.2-8.7,0v-0.1l-0.5-24.3l-13.1,0.6
		l-1.7,7.1L71,59.9l-6.9,24.3l-6-0.1l0.8-40.1v-4.4l-20.5,4.4l1,23.3c-6.7-0.8-13.2,0.4-18.8,2.8l-1.2,17.8L3.9,87.7l0.2,1.8
		l15.3,0.3l-0.9,14.6h0.1l39.2-1.3V103L58,86h7.5l6.9-24.4l13.4-0.5l1.8-7.1l9.6-0.5l0.4,22.6c-8.2,1-15.8,3.3-22.6,7.3
		c-3.8,2.4-9.1,5.9-9.2,10.9h34.2l-0.3-16.6c2.8-0.2,5.9-0.3,8.7,0.1l0.7,9.8l14.4-1.4c-0.4-2.3-0.8-4.6-0.8-7.2
		c-4-1.5-8.2-2.5-12.6-3.1l-1-14.7l21.6-0.8l-3,32l17.8-2.7L145.7,88.1z M22.4,71.4v-0.1c5.2-1.8,11.1-2.9,17.2-2.1l0.8,16.6
		l5.2,0.1l0.1,2.3l-24.3-0.5L22.4,71.4z M41.5,69.6c1.1,0.2,2.1,0.5,3.1,0.9l0.8,13.4c-1,0.1-2.2,0.1-3.2,0.1L41.5,69.6z
		 M55.9,101.2l-35.3,1.2h-0.1c0.2-4.2,0.5-8.5,0.8-12.7l26.4,0.5l-0.2-4.4l8.7,0.1L55.9,101.2z M56.2,84L47.4,84l-0.9-14.8
		c-1.5-0.8-3.2-1.3-5-1.7l-0.2-1.4l-1-20.7L56.9,42l0.1,3.6L56.2,84z M68.1,92.4c2.3-4.2,6.7-6.7,10.5-8.8
		c5.9-2.9,12.3-4.7,19.1-5.6l0.3,14.4H68.1z M120.8,80.5l0.5,4.2l-10.4,1l-0.6-7.5C114,78.5,117.5,79.3,120.8,80.5z"/>
</g>
</svg>
